<?xml version="1.0" encoding="UTF-8" standalone="no"?>
<svg
   width="484"
   height="484"
   clip-rule="evenodd"
   version="1.1"
   id="svg19"
   sodipodi:docname="EDC_logo_square_white.svg"
   inkscape:version="1.1 (ce6663b3b7, 2021-05-25)"
   xmlns:inkscape="http://www.inkscape.org/namespaces/inkscape"
   xmlns:sodipodi="http://sodipodi.sourceforge.net/DTD/sodipodi-0.dtd"
   xmlns="http://www.w3.org/2000/svg"
   xmlns:svg="http://www.w3.org/2000/svg">
  <defs
     id="defs23" />
  <sodipodi:namedview
     id="namedview21"
     pagecolor="#ffffff"
     bordercolor="#666666"
     borderopacity="1.0"
     inkscape:pageshadow="2"
     inkscape:pageopacity="0.0"
     inkscape:pagecheckerboard="0"
     showgrid="false"
     inkscape:zoom="0.42045455"
     inkscape:cx="299.67568"
     inkscape:cy="259.24324"
     inkscape:window-width="1920"
     inkscape:window-height="1020"
     inkscape:window-x="0"
     inkscape:window-y="1080"
     inkscape:window-maximized="1"
     inkscape:current-layer="light1" />
  <g
     id="g5">
    <title
       id="title2">background</title>
    <rect
       fill="none"
       id="canvas_background"
       height="486"
       width="486"
       y="-1"
       x="-1" />
  </g>
  <g
     id="g17">
    <title
       id="title7">Layer 1</title>
    <rect
       x="0"
       y="0"
       fill="none"
       height="520.909452"
       width="543.636656"
       id="light" />
    <g
       id="light1">
      <g
         id="svg_1">
        <path
           id="svg_2"
           fill="#004170"
           d="m457.817017,457.817017l0,-431.402023l-431.402023,0l0,78.48497l-26.414993,0l0,-104.899963l484.231934,0l0,484.231995l-484.231934,0l0,-90.674042l26.414993,0l0,64.259064l431.402023,0z"
           style="fill:#ffffff;fill-opacity:1" />
        <g
           id="svg_3">
          <path
             id="svg_4"
             fill="#004170"
             fill-rule="nonzero"
             d="m405.787964,268.441986c-1.515015,16.097992 -7.458008,28.661011 -17.822998,37.673004c-10.364014,9.019989 -24.153961,13.526001 -41.35498,13.526001c-12.026978,0 -22.615997,-2.851013 -31.768982,-8.54599c-9.152008,-5.703003 -16.222015,-13.806 -21.194,-24.310028c-4.980011,-10.503998 -7.567017,-22.701996 -7.777008,-36.584991l0,-14.100983c0,-14.233002 2.524994,-26.77301 7.567017,-37.619019c5.041992,-10.852997 12.28299,-19.212982 21.714996,-25.087006c9.431976,-5.872986 20.332001,-8.809998 32.700989,-8.809998c16.648987,0 30.05899,4.514008 40.213043,13.526001c10.162964,9.02002 16.067017,21.785004 17.721924,38.303009l-26.111938,0c-1.250977,-10.854004 -4.406036,-18.678009 -9.48703,-23.479004c-5.080994,-4.800995 -12.523987,-7.201996 -22.335999,-7.201996c-11.404999,0 -20.161011,4.164001 -26.276001,12.501007c-6.114014,8.335999 -9.237,20.557007 -9.376984,36.669983l0,13.387024c0,16.322998 2.92099,28.768982 8.755981,37.345978c5.84201,8.578003 14.388,12.865997 25.653992,12.865997c10.294037,0 18.032013,-2.315002 23.21402,-6.945984c5.182007,-4.630005 8.468964,-12.337006 9.85202,-23.113007l26.111938,0z"
             style="fill:#ffffff;fill-opacity:1" />
          <path
             id="svg_5"
             fill="#004170"
             fill-rule="nonzero"
             d="m88.20401,250.200012l-61.983002,0l0,46.429016l72.447983,0l0,20.937988l-98.668976,0l0,-150.910004l97.945984,0l0,21.14798l-71.724991,0l0,41.667023l61.983002,0l0,20.727997z"
             style="fill:#ffffff;fill-opacity:1" />
          <path
             id="svg_6"
             fill="#004170"
             fill-rule="nonzero"
             d="m135.989014,317.566986l0,-150.910004l44.564972,0c13.338989,0 25.171997,2.976013 35.497009,8.911987c10.332977,5.942993 18.328003,14.373016 23.998993,25.296021c5.664001,10.915985 8.5,23.424988 8.5,37.518005l0,7.566986c0,14.303009 -2.85199,26.882019 -8.553986,37.72702c-5.703003,10.845978 -13.822021,19.205994 -24.357025,25.078979c-10.535004,5.873993 -22.615997,8.811005 -36.227997,8.811005l-43.421967,0zm26.220978,-129.761993l0,108.824005l17.100006,0c13.751984,0 24.302979,-4.296997 31.667999,-12.897003c7.356995,-8.608002 11.10199,-20.95401 11.241974,-37.059021l0,-8.390991c0,-16.377991 -3.557983,-28.885986 -10.674988,-37.524994c-7.117004,-8.631989 -17.450012,-12.951996 -30.990997,-12.951996l-18.343994,0z"
             style="fill:#ffffff;fill-opacity:1" />
        </g>
      </g>
    </g>
  </g>
</svg>
